<?xml version="1.0" encoding="UTF-8" standalone="no"?>
<!DOCTYPE svg PUBLIC "-//W3C//DTD SVG 1.1//EN" "http://www.w3.org/Graphics/SVG/1.1/DTD/svg11.dtd">
<svg version="1.1" xmlns="http://www.w3.org/2000/svg" xmlns:xlink="http://www.w3.org/1999/xlink" preserveAspectRatio="xMidYMid meet" viewBox="0 0 640 640" width="640" height="640"><defs><path d="M538.98 463.49C517.83 428.27 506.66 387.92 506.66 346.85C506.66 340.17 506.66 286.69 506.66 280C506.66 195.6 450.34 124.21 373.32 101.2C373.32 96.41 373.32 58.12 373.32 53.33C373.33 23.92 349.41 0 319.99 0C290.58 0 266.66 23.92 266.66 53.33C266.66 58.12 266.66 96.41 266.66 101.2C189.65 124.21 133.32 195.6 133.32 280C133.32 286.69 133.32 340.17 133.32 346.85C133.32 387.92 122.15 428.24 101.03 463.47C96.45 471.1 59.82 532.16 55.24 539.79C52.76 543.92 52.71 549.04 55.08 553.23C57.46 557.41 61.86 560 66.66 560C117.33 560 522.66 560 573.33 560C578.13 560 582.55 557.42 584.92 553.26C587.3 549.09 587.22 543.92 584.77 539.81C575.61 524.55 543.56 471.13 538.98 463.49Z" id="a413TVmYd0"></path><path d="M319.99 640C357.08 640 388.92 618.08 403.97 586.67C392.77 586.67 336.79 586.67 236.02 586.67C267.27 622.22 295.26 640 319.99 640Z" id="bhP83SLHC"></path></defs><g><g><g><use xlink:href="#a413TVmYd0" opacity="1" fill="#ffbe00" fill-opacity="1"></use><g><use xlink:href="#a413TVmYd0" opacity="1" fill-opacity="0" stroke="#000000" stroke-width="1" stroke-opacity="0"></use></g></g><g><use xlink:href="#bhP83SLHC" opacity="1" fill="#ffbe00" fill-opacity="1"></use><g><use xlink:href="#bhP83SLHC" opacity="1" fill-opacity="0" stroke="#000000" stroke-width="1" stroke-opacity="0"></use></g></g></g></g></svg>